<!DOCTYPE svg PUBLIC "-//W3C//DTD SVG 1.1//EN" "http://www.w3.org/Graphics/SVG/1.1/DTD/svg11.dtd">

<!-- Uploaded to: SVG Repo, www.svgrepo.com, Transformed by: SVG Repo Mixer Tools -->
<svg height="800px" width="800px" version="1.1" id="_x32_" xmlns="http://www.w3.org/2000/svg" xmlns:xlink="http://www.w3.org/1999/xlink" viewBox="0 0 512 512" xml:space="preserve" fill="#8f720a" transform="rotate(0)matrix(-1, 0, 0, -1, 0, 0)">

<g id="SVGRepo_bgCarrier" stroke-width="0"/>

<g id="SVGRepo_tracerCarrier" stroke-linecap="round" stroke-linejoin="round"/>

<g id="SVGRepo_iconCarrier"> <style type="text/css"> .st0{fill:#000000;} </style>  <g> <path fill="#8f720a"  class="st0" d="M509.415,277.796c-3.979-18.869-12.116-40.588-23.572-64.264c-11.457-23.657-26.244-49.176-43.626-75.09 c-23.205-34.568-47.464-64.574-70.321-87.12c-11.438-11.278-22.509-20.694-33.157-27.918c-10.676-7.186-20.863-12.331-31.37-14.448 c-4.609-0.912-9.322-1.194-14.053-0.498c-4.741,0.658-9.482,2.389-13.592,5.164c-4.139,2.756-7.525,6.49-9.933,10.611 c-1.787,3.018-3.067,6.236-3.988,9.538L89.067,360.016c-6.697,3.217-12.538,6.64-17.589,10.3 c-9.999,7.158-17.035,15.323-21.701,23.77c-4.694,8.438-7.026,16.941-8.559,24.739c-1.468,7.515-2.277,14.466-3.528,20.674 c-0.818,4.261-1.814,8.146-3.235,11.768c-2.136,5.428-5.032,10.281-10.168,15.285C19.132,471.546,11.551,476.672,0,481.62 l9.547,22.312c9.068-3.866,16.64-8.089,22.998-12.708c9.519-6.904,16.272-14.815,20.741-22.99 c4.496-8.184,6.744-16.432,8.24-24.033c1.458-7.478,2.276-14.419,3.527-20.684c0.856-4.356,1.881-8.372,3.377-12.144 c2.229-5.644,5.304-10.751,10.807-16.056c4.468-4.261,10.705-8.673,19.48-12.98l372.497-41.115 c3.734,0.509,7.498,0.602,11.297,0.066c4.732-0.687,9.472-2.39,13.582-5.164l-7.722-11.541l7.722,11.532 c4.139-2.766,7.535-6.5,9.933-10.61c2.446-4.129,3.96-8.607,4.863-13.197C512.914,301.772,512.021,290.401,509.415,277.796z M125.254,351.484l28.397-52.44l12.275,47.953L125.254,351.484z M183.347,345.069l-17.524-68.468l35.02-64.639l32.658,127.567 L183.347,345.069z M250.921,337.62l-37.936-148.102l35.029-64.649l53.089,207.21L250.921,337.62z M318.505,330.161l-58.338-227.726 l9.5-17.561c4.506,15.652,11.391,32.894,20.308,51.339c11.457,23.648,26.253,49.176,43.636,75.09 c3.179,4.751,6.387,9.388,9.594,13.95l25.472,99.368L318.505,330.161z M386.08,322.692l-15.784-61.649 c11.354,13.949,22.66,26.545,33.628,37.371c7.61,7.506,15.032,14.091,22.321,19.856L386.08,322.692z"/> </g> </g>

</svg>