<svg xmlns="http://www.w3.org/2000/svg" viewBox="0 0 1200 180" width="1200" height="180">
  <!-- Straight String -->
  <line x1="100" y1="120" x2="1100" y2="120" stroke="#3c2f23" stroke-width="4" stroke-linecap="round"/>

  <!-- Red Flag -->
  <polygon points="130,120 170,120 170,180 150,160 130,180" fill="#d94c3a"/>
  
  <!-- Yellow Flag -->
  <polygon points="190,120 230,120 230,180 210,160 190,180" fill="#f4c542"/>
  
  <!-- Green Flag -->
  <polygon points="250,120 290,120 290,180 270,160 250,180" fill="#3a7d44"/>
  
  <!-- Purple Flag -->
  <polygon points="310,120 350,120 350,180 330,160 310,180" fill="#5c3d91"/>
  
  <!-- Orange Flag -->
  <polygon points="370,120 410,120 410,180 390,160 370,180" fill="#f7931a"/>

  <!-- Red Flag -->
  <polygon points="430,120 470,120 470,180 450,160 430,180" fill="#d94c3a"/>
  
  <!-- Yellow Flag -->
  <polygon points="490,120 530,120 530,180 510,160 490,180" fill="#f4c542"/>
  
  <!-- Green Flag -->
  <polygon points="550,120 590,120 590,180 570,160 550,180" fill="#3a7d44"/>
  
  <!-- Purple Flag -->
  <polygon points="610,120 650,120 650,180 630,160 610,180" fill="#5c3d91"/>
  
  <!-- Orange Flag -->
  <polygon points="670,120 710,120 710,180 690,160 670,180" fill="#f7931a"/>

  <!-- Red Flag -->
  <polygon points="730,120 770,120 770,180 750,160 730,180" fill="#d94c3a"/>
  
  <!-- Yellow Flag -->
  <polygon points="790,120 830,120 830,180 810,160 790,180" fill="#f4c542"/>
  
  <!-- Green Flag -->
  <polygon points="850,120 890,120 890,180 870,160 850,180" fill="#3a7d44"/>
  
  <!-- Purple Flag -->
  <polygon points="910,120 950,120 950,180 930,160 910,180" fill="#5c3d91"/>
  
  <!-- Orange Flag -->
  <polygon points="970,120 1010,120 1010,180 990,160 970,180" fill="#f7931a"/>

  <!-- Red Flag -->
  <polygon points="1030,120 1070,120 1070,180 1050,160 1030,180" fill="#d94c3a"/>

</svg>
