<svg viewBox="0 0 800 240" width="100%" height="180" xmlns="http://www.w3.org/2000/svg">
  <!-- top-left to center -->
  <path d="M0,20 C120,100 260,40 400,80" fill="none" stroke="#374151" stroke-width="4"/>
  <!-- top-right to center -->
  <path d="M800,30 C650,120 520,40 400,90" fill="none" stroke="#374151" stroke-width="4"/>

  <!-- left string bulbs -->
  <g stroke-width="2">
    <g fill="#F472B6" stroke="#BE185D">
      <circle cx="80"  cy="60" r="10"/>
      <circle cx="160" cy="85" r="10"/>
      <circle cx="240" cy="62" r="10"/>
      <circle cx="320" cy="75" r="10"/>
    </g>
    <g fill="#2f2f2f">
      <rect x="72"  y="46" width="16" height="7" rx="2"/>
      <rect x="152" y="71" width="16" height="7" rx="2"/>
      <rect x="232" y="48" width="16" height="7" rx="2"/>
      <rect x="312" y="61" width="16" height="7" rx="2"/>
    </g>
  </g>

  <!-- right string bulbs -->
  <g stroke-width="2">
    <g fill="#34D399" stroke="#059669">
      <circle cx="720" cy="70" r="10"/>
      <circle cx="640" cy="95" r="10"/>
      <circle cx="560" cy="68" r="10"/>
      <circle cx="480" cy="85" r="10"/>
    </g>
    <g fill="#2f2f2f">
      <rect x="712" y="56" width="16" height="7" rx="2"/>
      <rect x="632" y="81" width="16" height="7" rx="2"/>
      <rect x="552" y="54" width="16" height="7" rx="2"/>
      <rect x="472" y="71" width="16" height="7" rx="2"/>
    </g>
  </g>
</svg>
